<?xml version="1.0" standalone="no"?>
<!DOCTYPE svg PUBLIC "-//W3C//DTD SVG 20010904//EN"
 "http://www.w3.org/TR/2001/REC-SVG-20010904/DTD/svg10.dtd">
<svg version="1.0" xmlns="http://www.w3.org/2000/svg"
 width="250.000000pt" height="250.000000pt" viewBox="0 0 250.000000 250.000000"
 preserveAspectRatio="xMidYMid meet">
<metadata>
Created by potrace 1.14, written by Peter Selinger 2001-2017
</metadata>
<g transform="translate(0.000000,250.000000) scale(0.100000,-0.100000)"
fill="#000000" stroke="none">
<path d="M1110 2488 c-151 -16 -326 -72 -460 -146 -218 -120 -408 -317 -518
-537 -143 -287 -169 -641 -68 -948 131 -399 466 -715 864 -817 126 -32 130
-32 297 -35 105 -2 186 1 236 10 388 71 725 320 899 665 247 490 148 1082
-245 1462 -265 258 -639 387 -1005 346z"/>
</g>
</svg>
